# Wavefront OBJ file automatically generated by Tiled2Unity

# Vertices (Count = 208)
v -168 -12 0
v -180 -12 0
v -180 0 0
v -168 0 0
v -156 -12 0
v -156 0 0
v -144 -12 0
v -144 0 0
v -132 -12 0
v -132 0 0
v -120 -12 0
v -120 0 0
v -108 -12 0
v -108 0 0
v -96 -12 0
v -96 0 0
v -84 -12 0
v -84 0 0
v -72 -12 0
v -72 0 0
v -60 -12 0
v -60 0 0
v -48 -12 0
v -48 0 0
v -36 -12 0
v -36 0 0
v -24 -12 0
v -24 0 0
v -12 -12 0
v -12 0 0
v 0 -12 0
v 0 0 0
v -168 -24 0
v -180 -24 0
v -156 -24 0
v -144 -24 0
v -132 -24 0
v -120 -24 0
v -108 -24 0
v -96 -24 0
v -84 -24 0
v -72 -24 0
v -60 -24 0
v -48 -24 0
v -36 -24 0
v -24 -24 0
v -12 -24 0
v 0 -24 0
v -168 -36 0
v -180 -36 0
v -156 -36 0
v -144 -36 0
v -132 -36 0
v -120 -36 0
v -108 -36 0
v -96 -36 0
v -84 -36 0
v -72 -36 0
v -60 -36 0
v -48 -36 0
v -36 -36 0
v -24 -36 0
v -12 -36 0
v 0 -36 0
v -168 -48 0
v -180 -48 0
v -156 -48 0
v -144 -48 0
v -132 -48 0
v -120 -48 0
v -108 -48 0
v -96 -48 0
v -84 -48 0
v -72 -48 0
v -60 -48 0
v -48 -48 0
v -36 -48 0
v -24 -48 0
v -12 -48 0
v 0 -48 0
v -168 -60 0
v -180 -60 0
v -156 -60 0
v -144 -60 0
v -132 -60 0
v -120 -60 0
v -108 -60 0
v -96 -60 0
v -84 -60 0
v -72 -60 0
v -60 -60 0
v -48 -60 0
v -36 -60 0
v -24 -60 0
v -12 -60 0
v 0 -60 0
v -168 -72 0
v -180 -72 0
v -156 -72 0
v -144 -72 0
v -132 -72 0
v -120 -72 0
v -108 -72 0
v -96 -72 0
v -84 -72 0
v -72 -72 0
v -60 -72 0
v -48 -72 0
v -36 -72 0
v -24 -72 0
v -12 -72 0
v 0 -72 0
v -168 -84 0
v -180 -84 0
v -156 -84 0
v -144 -84 0
v -132 -84 0
v -120 -84 0
v -108 -84 0
v -96 -84 0
v -84 -84 0
v -72 -84 0
v -60 -84 0
v -48 -84 0
v -36 -84 0
v -24 -84 0
v -12 -84 0
v 0 -84 0
v -168 -96 0
v -180 -96 0
v -156 -96 0
v -144 -96 0
v -132 -96 0
v -120 -96 0
v -108 -96 0
v -96 -96 0
v -84 -96 0
v -72 -96 0
v -60 -96 0
v -48 -96 0
v -36 -96 0
v -24 -96 0
v -12 -96 0
v 0 -96 0
v -168 -108 0
v -180 -108 0
v -156 -108 0
v -144 -108 0
v -132 -108 0
v -120 -108 0
v -108 -108 0
v -96 -108 0
v -84 -108 0
v -72 -108 0
v -60 -108 0
v -48 -108 0
v -36 -108 0
v -24 -108 0
v -12 -108 0
v 0 -108 0
v -168 -120 0
v -180 -120 0
v -156 -120 0
v -144 -120 0
v -132 -120 0
v -120 -120 0
v -108 -120 0
v -96 -120 0
v -84 -120 0
v -72 -120 0
v -60 -120 0
v -48 -120 0
v -36 -120 0
v -24 -120 0
v -12 -120 0
v 0 -120 0
v -168 -132 0
v -180 -132 0
v -156 -132 0
v -144 -132 0
v -132 -132 0
v -120 -132 0
v -108 -132 0
v -96 -132 0
v -84 -132 0
v -72 -132 0
v -60 -132 0
v -48 -132 0
v -36 -132 0
v -24 -132 0
v -12 -132 0
v 0 -132 0
v -168 -144 0
v -180 -144 0
v -156 -144 0
v -144 -144 0
v -132 -144 0
v -120 -144 0
v -108 -144 0
v -96 -144 0
v -84 -144 0
v -72 -144 0
v -60 -144 0
v -48 -144 0
v -36 -144 0
v -24 -144 0
v -12 -144 0
v 0 -144 0

# Texture cooridinates (Count = 44)
vt 0.8889024 0.7500305
vt 0.9999864 0.7500305
vt 0.9999864 0.9999695
vt 0.8889024 0.9999695
vt 0.1111247 0.7500305
vt 0.2222087 0.7500305
vt 0.2222087 0.9999695
vt 0.1111247 0.9999695
vt 0.2222358 0.7500305
vt 0.3333198 0.7500305
vt 0.3333198 0.9999695
vt 0.2222358 0.9999695
vt 0.8889024 0.5000305
vt 0.9999864 0.5000305
vt 0.9999864 0.7499695
vt 0.8889024 0.7499695
vt 0.1111247 3.051758E-05
vt 0.2222087 3.051758E-05
vt 0.2222087 0.2499695
vt 0.1111247 0.2499695
vt 0.2222358 3.051758E-05
vt 0.3333198 3.051758E-05
vt 0.3333198 0.2499695
vt 0.2222358 0.2499695
vt 0.6666802 0.2500305
vt 0.7777642 0.2500305
vt 0.7777642 0.4999695
vt 0.6666802 0.4999695
vt 0.6666531 0.4999695
vt 0.5555691 0.4999695
vt 0.5555691 0.2500305
vt 0.6666531 0.2500305
vt 0.5555691 0.5000305
vt 0.6666531 0.5000305
vt 0.6666531 0.7499695
vt 0.5555691 0.7499695
vt 0.555542 0.4999695
vt 0.444458 0.4999695
vt 0.444458 0.2500305
vt 0.555542 0.2500305
vt 0.444458 0.5000305
vt 0.555542 0.5000305
vt 0.555542 0.7499695
vt 0.444458 0.7499695

# Normal
vn 0 0 -1

# Groups (Count = 3)

g mesh_0001
f 1/1/1 2/2/1 3/3/1 4/4/1
f 5/1/1 1/2/1 4/3/1 6/4/1
f 7/1/1 5/2/1 6/3/1 8/4/1
f 9/1/1 7/2/1 8/3/1 10/4/1
f 11/1/1 9/2/1 10/3/1 12/4/1
f 13/1/1 11/2/1 12/3/1 14/4/1
f 15/1/1 13/2/1 14/3/1 16/4/1
f 17/1/1 15/2/1 16/3/1 18/4/1
f 19/1/1 17/2/1 18/3/1 20/4/1
f 21/1/1 19/2/1 20/3/1 22/4/1
f 23/1/1 21/2/1 22/3/1 24/4/1
f 25/1/1 23/2/1 24/3/1 26/4/1
f 27/1/1 25/2/1 26/3/1 28/4/1
f 29/1/1 27/2/1 28/3/1 30/4/1
f 31/1/1 29/2/1 30/3/1 32/4/1
f 33/1/1 34/2/1 2/3/1 1/4/1
f 35/1/1 33/2/1 1/3/1 5/4/1
f 36/1/1 35/2/1 5/3/1 7/4/1
f 37/1/1 36/2/1 7/3/1 9/4/1
f 38/1/1 37/2/1 9/3/1 11/4/1
f 39/1/1 38/2/1 11/3/1 13/4/1
f 40/1/1 39/2/1 13/3/1 15/4/1
f 41/1/1 40/2/1 15/3/1 17/4/1
f 42/1/1 41/2/1 17/3/1 19/4/1
f 43/1/1 42/2/1 19/3/1 21/4/1
f 44/1/1 43/2/1 21/3/1 23/4/1
f 45/1/1 44/2/1 23/3/1 25/4/1
f 46/1/1 45/2/1 25/3/1 27/4/1
f 47/1/1 46/2/1 27/3/1 29/4/1
f 48/1/1 47/2/1 29/3/1 31/4/1
f 49/1/1 50/2/1 34/3/1 33/4/1
f 51/1/1 49/2/1 33/3/1 35/4/1
f 52/1/1 51/2/1 35/3/1 36/4/1
f 53/1/1 52/2/1 36/3/1 37/4/1
f 54/1/1 53/2/1 37/3/1 38/4/1
f 55/1/1 54/2/1 38/3/1 39/4/1
f 56/1/1 55/2/1 39/3/1 40/4/1
f 57/1/1 56/2/1 40/3/1 41/4/1
f 58/1/1 57/2/1 41/3/1 42/4/1
f 59/1/1 58/2/1 42/3/1 43/4/1
f 60/1/1 59/2/1 43/3/1 44/4/1
f 61/1/1 60/2/1 44/3/1 45/4/1
f 62/1/1 61/2/1 45/3/1 46/4/1
f 63/1/1 62/2/1 46/3/1 47/4/1
f 64/1/1 63/2/1 47/3/1 48/4/1
f 65/1/1 66/2/1 50/3/1 49/4/1
f 67/1/1 65/2/1 49/3/1 51/4/1
f 68/1/1 67/2/1 51/3/1 52/4/1
f 69/1/1 68/2/1 52/3/1 53/4/1
f 70/1/1 69/2/1 53/3/1 54/4/1
f 71/1/1 70/2/1 54/3/1 55/4/1
f 72/1/1 71/2/1 55/3/1 56/4/1
f 73/1/1 72/2/1 56/3/1 57/4/1
f 74/1/1 73/2/1 57/3/1 58/4/1
f 75/1/1 74/2/1 58/3/1 59/4/1
f 76/1/1 75/2/1 59/3/1 60/4/1
f 77/1/1 76/2/1 60/3/1 61/4/1
f 78/1/1 77/2/1 61/3/1 62/4/1
f 79/1/1 78/2/1 62/3/1 63/4/1
f 80/1/1 79/2/1 63/3/1 64/4/1
f 81/5/1 82/6/1 66/7/1 65/8/1
f 83/9/1 81/10/1 65/11/1 67/12/1
f 84/5/1 83/6/1 67/7/1 68/8/1
f 85/9/1 84/10/1 68/11/1 69/12/1
f 86/5/1 85/6/1 69/7/1 70/8/1
f 87/9/1 86/10/1 70/11/1 71/12/1
f 88/5/1 87/6/1 71/7/1 72/8/1
f 89/9/1 88/10/1 72/11/1 73/12/1
f 90/5/1 89/6/1 73/7/1 74/8/1
f 91/9/1 90/10/1 74/11/1 75/12/1
f 92/5/1 91/6/1 75/7/1 76/8/1
f 93/9/1 92/10/1 76/11/1 77/12/1
f 94/5/1 93/6/1 77/7/1 78/8/1
f 95/9/1 94/10/1 78/11/1 79/12/1
f 96/5/1 95/6/1 79/7/1 80/8/1
f 97/13/1 98/14/1 82/15/1 81/16/1
f 99/13/1 97/14/1 81/15/1 83/16/1
f 100/13/1 99/14/1 83/15/1 84/16/1
f 101/13/1 100/14/1 84/15/1 85/16/1
f 102/13/1 101/14/1 85/15/1 86/16/1
f 103/13/1 102/14/1 86/15/1 87/16/1
f 104/13/1 103/14/1 87/15/1 88/16/1
f 105/13/1 104/14/1 88/15/1 89/16/1
f 106/13/1 105/14/1 89/15/1 90/16/1
f 107/13/1 106/14/1 90/15/1 91/16/1
f 108/13/1 107/14/1 91/15/1 92/16/1
f 109/13/1 108/14/1 92/15/1 93/16/1
f 110/13/1 109/14/1 93/15/1 94/16/1
f 111/13/1 110/14/1 94/15/1 95/16/1
f 112/13/1 111/14/1 95/15/1 96/16/1
f 113/13/1 114/14/1 98/15/1 97/16/1
f 115/13/1 113/14/1 97/15/1 99/16/1
f 116/13/1 115/14/1 99/15/1 100/16/1
f 117/13/1 116/14/1 100/15/1 101/16/1
f 118/13/1 117/14/1 101/15/1 102/16/1
f 119/13/1 118/14/1 102/15/1 103/16/1
f 120/13/1 119/14/1 103/15/1 104/16/1
f 121/13/1 120/14/1 104/15/1 105/16/1
f 122/13/1 121/14/1 105/15/1 106/16/1
f 123/13/1 122/14/1 106/15/1 107/16/1
f 124/13/1 123/14/1 107/15/1 108/16/1
f 125/13/1 124/14/1 108/15/1 109/16/1
f 126/13/1 125/14/1 109/15/1 110/16/1
f 127/13/1 126/14/1 110/15/1 111/16/1
f 128/13/1 127/14/1 111/15/1 112/16/1
f 129/17/1 130/18/1 114/19/1 113/20/1
f 131/21/1 129/22/1 113/23/1 115/24/1
f 132/17/1 131/18/1 115/19/1 116/20/1
f 133/21/1 132/22/1 116/23/1 117/24/1
f 134/17/1 133/18/1 117/19/1 118/20/1
f 135/21/1 134/22/1 118/23/1 119/24/1
f 136/17/1 135/18/1 119/19/1 120/20/1
f 137/21/1 136/22/1 120/23/1 121/24/1
f 138/17/1 137/18/1 121/19/1 122/20/1
f 139/21/1 138/22/1 122/23/1 123/24/1
f 140/17/1 139/18/1 123/19/1 124/20/1
f 141/21/1 140/22/1 124/23/1 125/24/1
f 142/17/1 141/18/1 125/19/1 126/20/1
f 143/21/1 142/22/1 126/23/1 127/24/1
f 144/17/1 143/18/1 127/19/1 128/20/1
f 145/1/1 146/2/1 130/3/1 129/4/1
f 147/1/1 145/2/1 129/3/1 131/4/1
f 148/1/1 147/2/1 131/3/1 132/4/1
f 149/1/1 148/2/1 132/3/1 133/4/1
f 150/1/1 149/2/1 133/3/1 134/4/1
f 151/1/1 150/2/1 134/3/1 135/4/1
f 152/1/1 151/2/1 135/3/1 136/4/1
f 153/1/1 152/2/1 136/3/1 137/4/1
f 154/1/1 153/2/1 137/3/1 138/4/1
f 155/1/1 154/2/1 138/3/1 139/4/1
f 156/1/1 155/2/1 139/3/1 140/4/1
f 157/1/1 156/2/1 140/3/1 141/4/1
f 158/1/1 157/2/1 141/3/1 142/4/1
f 159/1/1 158/2/1 142/3/1 143/4/1
f 160/1/1 159/2/1 143/3/1 144/4/1
f 161/1/1 162/2/1 146/3/1 145/4/1
f 163/1/1 161/2/1 145/3/1 147/4/1
f 164/1/1 163/2/1 147/3/1 148/4/1
f 165/1/1 164/2/1 148/3/1 149/4/1
f 166/1/1 165/2/1 149/3/1 150/4/1
f 167/1/1 166/2/1 150/3/1 151/4/1
f 168/1/1 167/2/1 151/3/1 152/4/1
f 169/1/1 168/2/1 152/3/1 153/4/1
f 170/1/1 169/2/1 153/3/1 154/4/1
f 171/1/1 170/2/1 154/3/1 155/4/1
f 172/1/1 171/2/1 155/3/1 156/4/1
f 173/1/1 172/2/1 156/3/1 157/4/1
f 174/1/1 173/2/1 157/3/1 158/4/1
f 175/1/1 174/2/1 158/3/1 159/4/1
f 176/1/1 175/2/1 159/3/1 160/4/1
f 177/1/1 178/2/1 162/3/1 161/4/1
f 179/1/1 177/2/1 161/3/1 163/4/1
f 180/1/1 179/2/1 163/3/1 164/4/1
f 181/1/1 180/2/1 164/3/1 165/4/1
f 182/1/1 181/2/1 165/3/1 166/4/1
f 183/1/1 182/2/1 166/3/1 167/4/1
f 184/1/1 183/2/1 167/3/1 168/4/1
f 185/1/1 184/2/1 168/3/1 169/4/1
f 186/1/1 185/2/1 169/3/1 170/4/1
f 187/1/1 186/2/1 170/3/1 171/4/1
f 188/1/1 187/2/1 171/3/1 172/4/1
f 189/1/1 188/2/1 172/3/1 173/4/1
f 190/1/1 189/2/1 173/3/1 174/4/1
f 191/1/1 190/2/1 174/3/1 175/4/1
f 192/1/1 191/2/1 175/3/1 176/4/1
f 193/1/1 194/2/1 178/3/1 177/4/1
f 195/1/1 193/2/1 177/3/1 179/4/1
f 196/1/1 195/2/1 179/3/1 180/4/1
f 197/1/1 196/2/1 180/3/1 181/4/1
f 198/1/1 197/2/1 181/3/1 182/4/1
f 199/1/1 198/2/1 182/3/1 183/4/1
f 200/1/1 199/2/1 183/3/1 184/4/1
f 201/1/1 200/2/1 184/3/1 185/4/1
f 202/1/1 201/2/1 185/3/1 186/4/1
f 203/1/1 202/2/1 186/3/1 187/4/1
f 204/1/1 203/2/1 187/3/1 188/4/1
f 205/1/1 204/2/1 188/3/1 189/4/1
f 206/1/1 205/2/1 189/3/1 190/4/1
f 207/1/1 206/2/1 190/3/1 191/4/1
f 208/1/1 207/2/1 191/3/1 192/4/1

g mesh_0002
f 100/25/1 99/26/1 83/27/1 84/28/1
f 108/29/1 107/30/1 91/31/1 92/32/1
f 110/33/1 109/34/1 93/35/1 94/36/1
f 112/37/1 111/38/1 95/39/1 96/40/1
f 120/41/1 119/42/1 103/43/1 104/44/1

